<?xml version="1.0" encoding="UTF-8" ?>
<!DOCTYPE svg PUBLIC "-//W3C//DTD SVG 1.1//EN" "http://www.w3.org/Graphics/SVG/1.1/DTD/svg11.dtd">
<svg width="516pt" height="1356pt" viewBox="0 0 516 1356" version="1.1" xmlns="http://www.w3.org/2000/svg">
<g id="#231f20ff">
<path fill="#231f20" opacity="1.00" d=" M 96.38 41.55 C 103.11 40.54 110.04 40.74 116.81 41.35 C 127.78 43.87 137.40 51.08 143.56 60.43 C 146.43 65.05 148.75 70.00 151.24 74.83 C 187.08 145.03 222.46 215.45 258.27 285.67 C 279.24 326.77 299.94 368.01 320.86 409.15 C 362.28 490.45 403.38 571.92 444.77 653.24 C 447.91 659.16 451.04 665.20 452.35 671.84 C 453.11 675.65 456.39 679.46 454.38 683.40 C 452.05 687.87 451.78 693.02 449.68 697.57 C 446.70 704.14 443.22 710.46 439.96 716.89 C 405.73 784.34 371.44 851.75 337.07 919.12 C 315.22 962.49 293.05 1005.69 271.03 1048.97 C 232.56 1125.10 193.56 1200.96 155.08 1277.09 C 151.38 1284.04 148.31 1291.36 143.88 1297.90 C 138.05 1305.99 129.27 1311.78 119.72 1314.47 C 114.88 1315.40 109.91 1315.22 105.01 1315.18 C 95.23 1315.35 86.14 1310.28 78.95 1304.02 C 67.30 1292.73 61.43 1274.31 67.73 1258.87 C 70.78 1250.34 75.59 1242.59 79.51 1234.46 C 119.16 1156.15 159.19 1078.04 198.84 999.73 C 227.21 944.07 255.54 888.40 283.76 832.67 C 309.51 782.66 334.70 732.36 360.36 682.32 C 360.94 681.15 361.08 679.79 360.40 678.65 C 324.68 608.35 289.19 537.93 253.30 467.72 C 230.35 422.37 207.48 376.97 184.35 331.71 C 149.11 262.27 113.98 192.76 78.63 123.37 C 73.65 112.79 66.83 102.83 64.61 91.17 C 64.01 88.66 62.73 86.37 62.17 83.85 C 62.63 80.44 64.37 77.36 64.98 73.98 C 68.11 58.32 81.13 45.63 96.38 41.55 Z" />
</g>
</svg>
