<?xml version="1.0" encoding="iso-8859-1"?>
<!-- Generator: Adobe Illustrator 16.0.0, SVG Export Plug-In . SVG Version: 6.00 Build 0)  -->
<!DOCTYPE svg PUBLIC "-//W3C//DTD SVG 1.1//EN" "http://www.w3.org/Graphics/SVG/1.1/DTD/svg11.dtd">
<svg version="1.1" id="Capa_1" xmlns="http://www.w3.org/2000/svg" xmlns:xlink="http://www.w3.org/1999/xlink" x="0px" y="0px"
	 width="488.638px" height="488.639px" viewBox="0 0 488.638 488.639" style="enable-background:new 0 0 488.638 488.639;"
	 xml:space="preserve">
<g>
	<g id="Layer_2_39_">
		<path d="M191.884,221.953c13.673,0,24.789-11.1,24.789-24.811c0-13.694-11.116-24.81-24.789-24.81
			c-13.714,0-24.831,11.116-24.831,24.81C167.053,210.819,178.169,221.953,191.884,221.953z M196.968,187.486
			c7.026,0,12.693,5.704,12.693,12.714c0,7.044-5.667,12.749-12.693,12.749c-7.029,0-12.716-5.704-12.716-12.749
			C184.251,193.19,189.938,187.486,196.968,187.486z"/>
		<path d="M304.402,221.953c13.708,0,24.812-11.134,24.812-24.811c0-13.694-11.104-24.81-24.812-24.81
			c-13.696,0-24.78,11.116-24.78,24.81C279.622,210.819,290.689,221.953,304.402,221.953z M299.333,187.486
			c7.027,0,12.712,5.704,12.712,12.714c-0.014,7.044-5.685,12.749-12.712,12.749c-7.024,0-12.72-5.704-12.72-12.749
			C286.613,193.19,292.306,187.486,299.333,187.486z"/>
		<path d="M344.165,328.394h-18.682l-3.616,5.826c-16.789,27.052-45.779,43.2-77.547,43.2c-31.771,0-60.761-16.148-77.549-43.2
			l-3.616-5.827h-18.681c-42.153,0-93.066,37.391-93.066,83.821v76.425h385.823v-76.425
			C437.231,365.783,386.318,328.394,344.165,328.394z M412.579,463.986H76.06v-51.771c0-31.311,38.258-59.167,68.414-59.167h5.207
			c21.736,30.826,56.618,49.026,94.639,49.026c38.018,0,72.898-18.201,94.637-49.026h5.208c30.156,0,68.414,27.858,68.414,59.167
			V463.986z"/>
		<path d="M407.277,131.272c-8.84-33.806-28.896-65.445-56.96-89.669C319.234,14.775,281.203,0,243.229,0
			c-37.81,0-75.053,14.85-104.869,41.814c-26.439,23.91-45.568,55.557-54.319,89.679c-19.265,8.288-30.952,29.374-30.952,56.796
			c0,16.475,3.903,29.764,11.604,39.499c7.748,9.797,18.949,15.345,32.554,16.17c13.863,24.448,34.188,46.672,57.818,63.099
			c28.304,19.676,59.643,30.074,90.628,30.074c30.991,0,62.334-10.402,90.641-30.082c23.619-16.42,43.935-38.632,57.796-63.069
			c17.061-0.937,42.123-10.084,42.123-55.691C436.252,159.073,426.029,139.131,407.277,131.272z M390.956,221.879
			c-0.676,0-1.521-0.074-2.417-0.151l-7.413-0.644l-3.408,6.614c-21.653,42.021-72.205,87.246-132.023,87.246
			c-59.806,0-110.354-45.213-132.01-87.223l-3.366-6.53l-7.882,0.594c-0.611,0.048-1.188,0.094-1.58,0.094
			c-16.973,0-25.578-11.301-25.578-33.59c0-7.309,1.417-31.005,19.164-37.045c0.207,5.694,0.272,22.94,5.551,31.021
			c0.256,0.415,0.543,0.807,0.861,1.173c1.703,2.067,3.874,3.263,6.647,3.067c0.025,0,0.05,0.004,0.075,0.004
			c3.231,0,6.053-1.724,7.616-4.297c6.258-9.244-8.464-25.811,13.217-40.783c0.008-0.006,0.014-0.012,0.021-0.019
			c17.409-9.697,33.273-21.29,43.298-32.005c3.399-3.633,6.418-2.93,7.212,0.922c4.605,22.352,42.072,45.221,61.446,49.551
			c0.714,0.187,1.459,0.297,2.231,0.297c4.573,0,8.327-3.492,8.749-7.955c0.771-6.083-7.222-16.45-9.623-24.212
			c0.005-0.006,0.009-0.012,0.014-0.018c-0.327-0.92-0.515-1.907-0.515-2.939c0-4.856,3.937-8.792,8.792-8.792
			c0.076,0,0.149,0.01,0.226,0.012c0.248-0.008,0.504-0.013,0.774-0.012c31.797,1.891,109.146,30.771,113.467,32.867
			c21.658,10.716,4.031,32.782,16.179,36.749c12.146,3.967,15.714-29.503,15.678-34.954c14.595,4.414,17.708,22.649,17.708,37.368
			C414.065,221.879,398.457,221.879,390.956,221.879z"/>
	</g>
</g>
<g>
</g>
<g>
</g>
<g>
</g>
<g>
</g>
<g>
</g>
<g>
</g>
<g>
</g>
<g>
</g>
<g>
</g>
<g>
</g>
<g>
</g>
<g>
</g>
<g>
</g>
<g>
</g>
<g>
</g>
</svg>
