<?xml version="1.0" encoding="UTF-8"?>
<!DOCTYPE svg PUBLIC "-//W3C//DTD SVG 1.1//EN" "http://www.w3.org/Graphics/SVG/1.1/DTD/svg11.dtd">
<!-- Creator: CorelDRAW -->
<svg xmlns="http://www.w3.org/2000/svg" xml:space="preserve" width="35.9825in" height="25.8944in" style="shape-rendering:geometricPrecision; text-rendering:geometricPrecision; image-rendering:optimizeQuality; fill-rule:evenodd; clip-rule:evenodd"
viewBox="0 0 57.3421 41.2655"
 xmlns:xlink="http://www.w3.org/1999/xlink">
 <defs>
  <style type="text/css">
   <![CDATA[
    .fil8 {fill:#ecf0f1}
    .fil7 {fill:#ecf0f1}
    .fil6 {fill:#ecf0f1}
    .fil5 {fill:#ecf0f1}
    .fil4 {fill:#ecf0f1}
    .fil3 {fill:#ecf0f1}
    .fil2 {fill:#ecf0f1}
    .fil1 {fill:#ecf0f1}
    .fil9 {fill:#ecf0f1}
    .fil0 {fill:#ecf0f1}
   ]]>
  </style>
 </defs>
 <g id="Layer_x0020_1">
  <metadata id="CorelCorpID_0Corel-Layer"/>
  <path class="fil0" d="M20.7763 22.9488l-1.58453 0 -7.902 0c0.0915762,-0.900566 0.384343,-1.75443 0.888169,-2.56151 0.500563,-0.807108 1.5001,-1.87596 2.99197,-3.20968 1.2065,-1.07509 1.94159,-1.80742 2.21189,-2.1907 0.363419,-0.52975 0.542863,-1.05326 0.535021,-1.57057 -0.00863311,-0.570249 -0.176351,-1.00963 -0.506423,-1.31814 -0.330122,-0.308502 -0.779452,-0.461181 -1.35141,-0.461181 -0.565368,0 -1.00997,0.162034 -1.3404,0.483002 -0.327098,0.32408 -0.51293,0.860067 -0.554163,1.60795l-2.69928 -0.255536c0.139692,-1.41164 0.627268,-2.42439 1.46599,-3.04139 0.838773,-0.613904 1.89253,-0.922406 3.16463,-0.922406 1.39373,0 2.49376,0.358368 3.3,1.06888 0.806292,0.713599 1.2174,1.59861 1.23346,2.65811 0.00910366,0.601419 -0.0972919,1.17481 -0.315824,1.72014 -0.218551,0.545341 -0.571479,1.11558 -1.05552,1.71079 -0.322725,0.395749 -0.905786,0.966023 -1.74592,1.70765 -0.843372,0.741676 -1.37824,1.23714 -1.6014,1.48021 -0.223112,0.24307 -0.40691,0.479878 -0.54477,0.710506l4.64395 0 2.95244 -8.60416 2.65004 0 -3.05943 8.66116 2.54239 0 0 -3.74886 2.45616 0 0 3.62658 1.52758 0 1.4887 2.57848 -2.93015 0 0 3.18858 -2.36999 0 0 -3.31791 -4.4912 0z"/>
  <path class="fil7" d="M10.6263 32.6193l-1.02363 -1.0696c-5.81917,-6.08005 -6.00886,-15.7914 -0.0997764,-21.784 5.67544,-5.75587 14.7013,-6.07394 20.7658,-1.11595l-1.77283 1.69708c-0.411076,0.393126 -0.242091,1.08402 0.304035,1.24335l9.92237 2.89302c0.546107,0.159311 1.05988,-0.332306 0.924709,-0.884912l-2.45465 -10.0403c-0.135244,-0.552651 -0.817905,-0.751714 -1.22911,-0.358356l-1.92984 1.84725c-8.03331,-6.99428 -20.305,-6.75488 -28.0459,0.917606 -8.03801,7.96691 -7.90258,21.0333 -0.0773466,29.2094l0.978678 1.02271c0.28217,0.294849 0.750171,0.304932 1.04496,0.0228376l2.66979 -2.5551c0.294749,-0.282119 0.305189,-0.750039 0.0227811,-1.04494z"/>
  <path class="fil8" d="M24.0346 33.5798l0 -0.524135 0.185424 0c0.122081,0 0.201943,-0.0137653 0.240497,-0.0431404 0.0385478,-0.0284529 0.057828,-0.11107 0.057828,-0.246922l0 -0.0266146 0 -2.01759c0,-0.143193 -0.0183579,-0.232234 -0.0541577,-0.26528 -0.0357998,-0.0330392 -0.11841,-0.0495651 -0.249676,-0.0495651l-0.179915 0 0 -0.521381 2.22321 0c0.482827,0 0.836226,0.0697613 1.06111,0.210206 0.224894,0.139523 0.337795,0.358908 0.337795,0.659065 0,0.203781 -0.0651749,0.380936 -0.196435,0.529644 -0.130344,0.148702 -0.319438,0.262526 -0.567275,0.341466 0.321276,0.0697613 0.559935,0.181747 0.716899,0.335957 0.156964,0.15421 0.234982,0.356153 0.234982,0.604907 0,0.361662 -0.125751,0.621433 -0.378182,0.778398 -0.251508,0.156964 -0.674669,0.234989 -1.26765,0.234989l-2.16446 0zm19.1818 -2.34529c0.0927055,-0.116572 0.196435,-0.203775 0.309336,-0.260687 0.112902,-0.057828 0.23315,-0.0862872 0.362578,-0.0862872 0.197351,0 0.355237,0.0578343 0.473648,0.17349 0.11841,0.115656 0.177161,0.269866 0.177161,0.463546 0,0.167066 -0.046817,0.30108 -0.141361,0.401132 -0.0936278,0.100052 -0.217547,0.15054 -0.371757,0.15054 -0.122087,0 -0.223971,-0.0385541 -0.305666,-0.115656 -0.0817008,-0.0771082 -0.122087,-0.17349 -0.122087,-0.28823 0,-0.0789402 0.0192739,-0.147785 0.0587503,-0.20653 0.0394701,-0.0596663 0.100052,-0.109231 0.180825,-0.15054 -0.0220282,-0.00550863 -0.0422244,-0.010095 -0.0624144,-0.0128493 -0.0192802,-0.00275431 -0.0385541,-0.00367033 -0.055996,-0.00367033 -0.146863,0 -0.263442,0.068839 -0.348806,0.205614 -0.0853711,0.137684 -0.127596,0.325862 -0.127596,0.566353l0 0.76738c0,0.105561 0.0174419,0.175322 0.0514034,0.208368 0.0339678,0.0330455 0.103729,0.0495714 0.20929,0.0495714l0.175322 0 0 0.483743 -1.87256 0 0 -0.483743 0.0945438 0c0.105561,0 0.175322,-0.0165259 0.208368,-0.0495714 0.0330455,-0.0330455 0.0495651,-0.102807 0.0495651,-0.208368l0 -1.11435c0,-0.107393 -0.0165196,-0.177154 -0.0495651,-0.209284 -0.0330455,-0.0321295 -0.102807,-0.0486491 -0.208368,-0.0486491l-0.0945438 0 0 -0.486497 1.40993 0 0 0.255179zm-1.66236 1.44206c-0.0624206,0.336873 -0.208368,0.588388 -0.436016,0.753609 -0.227642,0.166143 -0.540655,0.24876 -0.940864,0.24876 -0.457128,0 -0.817868,-0.125757 -1.08315,-0.37635 -0.26528,-0.250592 -0.398378,-0.591142 -0.398378,-1.02164 0,-0.426837 0.133098,-0.766464 0.399294,-1.02073 0.266202,-0.253347 0.623271,-0.38002 1.07121,-0.38002 0.443356,0 0.782984,0.125757 1.02073,0.378182 0.237743,0.251508 0.356153,0.612254 0.356153,1.08223l0 0.0936278 -1.72844 0 0 0.0541577c0,0.218463 0.0458948,0.385522 0.136768,0.502101 0.0917895,0.116572 0.222139,0.174406 0.390115,0.174406 0.143199,0 0.260693,-0.0422244 0.352483,-0.125757 0.0908735,-0.0844489 0.152372,-0.205614 0.182663,-0.362578l0.677429 0zm-1.73946 -0.726078l0.798588 0 0 -0.0403861c0,-0.171652 -0.0348775,-0.30475 -0.104639,-0.398378 -0.0697676,-0.0927118 -0.16982,-0.139523 -0.298325,-0.139523 -0.125757,0 -0.223055,0.0504874 -0.291901,0.15054 -0.0688453,0.100052 -0.103723,0.243245 -0.103723,0.427747zm-4.49414 -1.32364c0,-0.105561 -0.0165196,-0.175322 -0.0495651,-0.208368 -0.0330455,-0.0330455 -0.102807,-0.0495651 -0.208368,-0.0495651l-0.121165 0 0 -0.483749 1.45215 0 0 2.2076 0.55075 -0.436016c0.0266208,-0.0174419 0.046817,-0.0357998 0.0596663,-0.0550737 0.0119333,-0.0192802 0.0183579,-0.0385541 0.0183579,-0.0605823 0,-0.0266208 -0.0119333,-0.0458948 -0.0348838,-0.057828 -0.0229442,-0.0119333 -0.0651687,-0.0174419 -0.126667,-0.0174419l-0.0587503 0 0 -0.486497 1.55771 0 0 0.486497c-0.0936278,0 -0.177161,0.010095 -0.253347,0.0312072 -0.0752699,0.0201962 -0.138607,0.0523257 -0.190926,0.0954661l-0.365332 0.284554 0.634282 1.0143c0.0431404,0.0697613 0.0972981,0.121165 0.161551,0.152372 0.0642589,0.0312135 0.149624,0.0486553 0.255185,0.0523257l0.00275431 0.483743 -1.69173 0 0 -0.483743c0.00183203,0 0.00550235,0 0.011011,0 0.116578,-0.00550863 0.174406,-0.0293752 0.174406,-0.0725156 0,-0.0238665 -0.00642464,-0.0514034 -0.0201962,-0.0835328 -0.0128493,-0.0321295 -0.0385541,-0.0798562 -0.0761859,-0.142277l-0.220301 -0.346974 -0.38736 0.284554c-0.00275431,0.0183579 -0.00367033,0.0348838 -0.00459261,0.0514034 -0.000916013,0.0165259 -0.000916013,0.0403924 -0.000916013,0.0725156 0,0.0881255 0.0174419,0.149624 0.0523194,0.184501 0.0348838,0.0348838 0.0963821,0.0523257 0.184501,0.0523257l0.0238665 0 0 0.483743 -1.69632 0 0 -0.483743 0.110154 0c0.105561,0 0.175322,-0.0165259 0.208368,-0.0495714 0.0330455,-0.0330455 0.0495651,-0.102807 0.0495651,-0.208368l0 -2.21127zm-2.16446 0.253347c0.489251,0 0.875696,0.125757 1.16026,0.37635 0.283631,0.251508 0.425915,0.592974 0.425915,1.0244 0,0.430501 -0.141361,0.770135 -0.423167,1.01981 -0.282715,0.248754 -0.668244,0.373589 -1.1575,0.373589 -0.492922,0 -0.879366,-0.123919 -1.1575,-0.370841 -0.279051,-0.247838 -0.418574,-0.588381 -0.418574,-1.02256 0,-0.435094 0.139523,-0.777482 0.418574,-1.02715 0.278129,-0.24876 0.662735,-0.373595 1.15199,-0.373595zm0.411227 1.40075c0,-0.335041 -0.0312072,-0.566359 -0.0927055,-0.694865 -0.0624206,-0.127596 -0.167982,-0.191848 -0.318522,-0.191848 -0.147785,0 -0.251508,0.0642527 -0.312091,0.191848 -0.0614983,0.128505 -0.0917895,0.359824 -0.0917895,0.694865 0,0.335957 0.0312072,0.566353 0.0927055,0.693949 0.0624206,0.127589 0.168898,0.190926 0.321276,0.190926 0.147785,0 0.250592,-0.0633366 0.311175,-0.189094 0.05966,-0.126673 0.0899512,-0.357985 0.0899512,-0.695781zm-3.81029 -1.40075c0.489251,0 0.875696,0.125757 1.16026,0.37635 0.283631,0.251508 0.425915,0.592974 0.425915,1.0244 0,0.430501 -0.141361,0.770135 -0.423167,1.01981 -0.282715,0.248754 -0.668244,0.373589 -1.1575,0.373589 -0.492922,0 -0.879366,-0.123919 -1.1575,-0.370841 -0.279051,-0.247838 -0.418574,-0.588381 -0.418574,-1.02256 0,-0.435094 0.139523,-0.777482 0.418574,-1.02715 0.278129,-0.24876 0.662735,-0.373595 1.15199,-0.373595zm0.411227 1.40075c0,-0.335041 -0.0312072,-0.566359 -0.0927055,-0.694865 -0.0624206,-0.127596 -0.167982,-0.191848 -0.318522,-0.191848 -0.147785,0 -0.251508,0.0642527 -0.312091,0.191848 -0.0614983,0.128505 -0.0917895,0.359824 -0.0917895,0.694865 0,0.335957 0.0312072,0.566353 0.0927055,0.693949 0.0624206,0.127589 0.168898,0.190926 0.321276,0.190926 0.147785,0 0.250592,-0.0633366 0.311175,-0.189094 0.05966,-0.126673 0.0899512,-0.357985 0.0899512,-0.695781zm-4.43171 0.78023l0.236827 0c0.223971,0 0.384606,-0.0468108 0.481904,-0.139523 0.0963821,-0.0936278 0.145031,-0.246922 0.145031,-0.459876 0,-0.195519 -0.0514034,-0.339634 -0.153294,-0.433262 -0.102807,-0.0927055 -0.262526,-0.139523 -0.47915,-0.139523l-0.231318 0 0 1.17218zm0 -1.65593l0.201943 0c0.195519,0 0.337795,-0.0403924 0.427753,-0.122087 0.0890352,-0.0816945 0.134014,-0.2102 0.134014,-0.38369 0,-0.172568 -0.0413084,-0.295571 -0.124835,-0.370841 -0.0835328,-0.0743476 -0.223055,-0.111063 -0.418574,-0.111063l-0.220301 0 0 0.987681z"/>
  <path class="fil9" d="M24.8212 29.1711c-0.519417,-0.0976181 -0.90647,-0.33698 -1.16366,-0.718167 0,1.36123 -0.338655,2.49243 -1.01243,3.39227 -0.742974,0.992261 -1.77489,1.49087 -3.10212,1.49087l-2.10821 0 -0.262356 -1.62668 2.24401 0c0.697588,0 1.29798,-0.220922 1.79954,-0.660539 0.523175,-0.458577 0.787106,-1.03405 0.787106,-1.72546l0 -5.21031 1.62668 0 0 2.34278c0,0.734586 0.592635,1.11429 1.77483,1.13898l16.3096 0c0.429045,0 0.642031,-0.253108 0.642031,-0.759324 0,-0.234593 -0.071587,-0.419333 -0.206818,-0.561779l-4.22257 -4.4479 -0.271623 -1.81805 5.96962 -2.16993 0.24386 1.62976 -4.21333 1.58039 3.33671 3.73487c0.236011,0.264163 0.533019,0.692041 0.901306,1.28407 0.205802,0.330863 0.308671,0.645105 0.308671,0.938336 0,1.47853 -0.830403,2.21624 -2.48787,2.21624l-16.3096 0 -0.583387 0 0 -0.0504246zm32.5208 -2.59794c0,0.697531 -0.21729,1.30465 -0.651279,1.82423 -0.458032,0.548384 -1.02791,0.824135 -1.71002,0.824135l-2.11129 0 -0.555606 0 -0.521638 0c0,1.19454 -0.398202,2.17921 -1.19764,2.95395 -0.799428,0.774727 -1.79648,1.16059 -2.99716,1.16059l-2.09894 0 -0.225327 -1.62668 2.05263 0c0.771672,0 1.41294,-0.223143 1.92609,-0.669806 0.511587,-0.445339 0.784032,-1.05256 0.814888,-1.81805 -1.34579,0 -2.33436,-0.180705 -2.9663,-0.549438 -0.828025,-0.483165 -1.24083,-1.34887 -1.24083,-2.59589 0,-1.36431 0.329325,-2.31559 0.984651,-2.86752 0.381777,-0.321564 1.02477,-0.487708 1.92916,-0.487708 1.29642,0 2.16626,0.536106 2.60209,1.60817 0.25558,0.628655 0.391997,1.71619 0.416698,3.2657l0.521638 0c1.70693,0 2.65876,-0.0307805 2.849,-0.0987851 0.362271,-0.129522 0.543265,-0.620417 0.543265,-1.46616 0,-0.209892 -0.00623014,-0.530924 -0.0154342,-0.95687 -0.00926679,-0.429027 -0.0123474,-0.750058 -0.0123474,-0.95995l1.66371 0 0 2.46008zm-1.91682 5.68873c0,0.317938 -0.111126,0.586468 -0.330279,0.799453 -0.219159,0.212979 -0.487702,0.321012 -0.799447,0.321012 -0.80872,0 -1.21306,-0.373482 -1.21306,-1.12047 0,-0.651291 0.388923,-0.978477 1.16676,-0.978477 0.784007,0 1.17602,0.327186 1.17602,0.978477zm-5.30599 -4.66705l0 -1.54643c0,-0.453734 -0.107412,-0.843121 -0.324112,-1.16676 -0.246257,-0.367735 -0.589561,-0.552513 -1.0217,-0.552513 -0.518564,0 -0.872007,0.175159 -1.04946,0.524731 -0.128085,0.252293 -0.191378,0.672906 -0.191378,1.25627 0,0.688346 0.287979,1.12708 0.858091,1.3211 0.309568,0.105367 0.885891,0.163596 1.72856,0.163596z"/>
 </g>
</svg>
